<svg version="1.0" xmlns="http://www.w3.org/2000/svg"
 width="900.000000pt" height="500.000000pt" viewBox="0 0 900.000000 500.000000"
 preserveAspectRatio="xMidYMid meet">

<g transform="translate(0.000000,500.000000) scale(0.100000,-0.100000)"
fill="#000000" stroke="none">
<path d="M3496 4510 c-294 -37 -540 -149 -756 -345 -276 -250 -453 -613 -511
-1045 -18 -135 -16 -429 5 -574 108 -755 573 -1438 1193 -1750 257 -130 468
-181 738 -180 185 1 307 22 465 81 193 71 329 160 485 317 317 318 475 737
475 1258 0 269 -34 488 -111 721 -37 112 -40 137 -19 137 5 0 85 36 176 80 92
44 173 80 181 80 8 0 73 -41 144 -91 l129 -90 263 134 c144 74 304 156 355
182 52 26 90 51 85 55 -7 6 -240 114 -409 190 l-51 22 12 52 c49 196 105 440
103 446 -4 11 -680 -313 -689 -330 -4 -8 -18 -81 -29 -161 l-22 -147 -107 -50
c-58 -28 -145 -69 -192 -90 l-86 -40 -43 76 c-356 637 -962 1046 -1580 1066
-74 3 -166 1 -204 -4z m525 -300 c415 -42 805 -285 1083 -674 59 -82 131 -204
125 -211 -2 -2 -39 -19 -81 -38 l-77 -36 -45 67 c-84 127 -209 253 -331 334
-68 45 -206 107 -290 129 -111 29 -280 29 -388 0 -581 -155 -766 -964 -361
-1573 320 -481 885 -632 1265 -339 110 85 194 200 252 346 76 192 92 437 42
658 -14 66 -25 120 -23 122 18 16 152 74 158 68 10 -11 46 -132 69 -233 105
-451 19 -949 -219 -1268 -219 -295 -524 -452 -880 -452 -365 0 -709 157 -1006
462 -370 377 -583 956 -536 1455 37 385 178 693 414 907 168 152 382 249 608
275 107 12 107 12 221 1z m544 -635 c157 -41 309 -146 413 -286 23 -31 42 -58
42 -61 0 -3 -17 -13 -37 -21 -21 -8 -101 -45 -178 -82 -77 -37 -172 -82 -212
-100 -80 -37 -103 -64 -110 -128 -8 -77 59 -157 130 -157 18 0 131 47 274 115
134 63 246 115 247 115 12 0 31 -152 30 -240 -3 -294 -150 -518 -394 -600 -56
-19 -80 -21 -175 -17 -181 8 -308 68 -455 216 -117 118 -189 247 -237 423 -28
99 -25 331 5 423 66 206 204 352 380 400 66 18 206 18 277 0z"/>
</g>
</svg>
